<?xml version="1.0" standalone="no"?>
<!DOCTYPE svg PUBLIC "-//W3C//DTD SVG 20010904//EN"
 "http://www.w3.org/TR/2001/REC-SVG-20010904/DTD/svg10.dtd">
<svg version="1.0" xmlns="http://www.w3.org/2000/svg"
 width="90.000000pt" height="90.000000pt" viewBox="0 0 90.000000 90.000000"
 preserveAspectRatio="xMidYMid meet">

<g transform="translate(0.000000,90.000000) scale(0.100000,-0.100000)"
fill="#000000" stroke="none">
<path d="M672 841 c-19 -24 -44 -42 -63 -46 -17 -4 -28 -9 -25 -12 11 -12 61
10 88 39 15 16 28 26 28 20 0 -15 -39 -60 -58 -66 -17 -6 -49 -72 -39 -82 12
-12 67 52 91 107 34 75 23 96 -22 40z"/>
<path d="M170 825 c0 -44 58 -135 86 -135 28 0 21 29 -14 51 -19 13 -38 31
-40 39 -3 9 5 6 21 -8 28 -27 87 -28 95 -2 5 13 3 13 -11 1 -24 -19 -65 -6
-104 35 -22 24 -33 30 -33 19z"/>
<path d="M408 823 c-43 -2 -78 -8 -78 -13 0 -5 6 -7 14 -4 8 3 31 1 52 -5 27
-7 51 -7 82 1 34 8 49 8 64 -1 17 -11 19 -10 16 6 -4 20 -21 22 -150 16z"/>
<path d="M674 696 c-47 -32 -52 -33 -67 -18 -27 26 -68 5 -94 -47 -20 -40 -21
-46 -8 -72 20 -38 19 -63 -5 -84 -27 -24 -25 -39 5 -53 21 -10 25 -19 25 -51
0 -22 5 -52 10 -66 l10 -27 27 38 c23 33 28 53 32 132 8 120 19 132 125 132
75 0 106 12 127 52 9 17 5 25 -30 59 -52 51 -88 52 -157 5z m-39 -65 c-12 -12
-17 -12 -30 -1 -14 12 -18 11 -26 -1 -5 -8 -8 -24 -6 -36 2 -12 0 -20 -4 -17
-12 7 -11 31 1 54 7 13 20 18 45 17 29 -2 32 -4 20 -16z"/>
<path d="M105 701 c-36 -11 -85 -41 -85 -52 0 -18 27 -63 52 -87 36 -33 83
-44 136 -30 54 13 57 10 66 -83 4 -38 11 -69 17 -69 5 0 9 4 9 9 0 6 18 30 40
55 47 56 62 112 35 133 -11 7 -25 13 -32 13 -15 0 -17 24 -3 50 25 47 -28 76
-67 37 l-25 -24 -42 22 c-51 28 -75 35 -101 26z m148 -108 c-7 -18 -15 -16
-35 11 l-17 24 28 -11 c17 -6 27 -16 24 -24z"/>
<path d="M626 448 c-6 -74 -13 -113 -27 -136 -10 -18 -19 -45 -19 -59 0 -15
-7 -34 -15 -43 -11 -12 -13 -29 -8 -68 6 -52 16 -65 27 -37 3 8 14 15 25 15
22 0 31 18 31 68 l1 37 16 -30 c19 -38 73 -95 89 -95 26 0 39 34 40 109 0 42
4 94 8 116 8 40 7 42 -33 69 -23 16 -39 31 -37 33 2 3 25 -3 50 -11 26 -9 49
-16 53 -16 16 0 -37 45 -83 71 -28 16 -61 40 -74 54 -13 14 -27 25 -30 25 -4
0 -11 -46 -14 -102z"/>
<path d="M410 404 l-35 -13 36 0 c21 -1 42 5 49 14 16 19 1 19 -50 -1z"/>
<path d="M460 385 c-13 -14 -21 -27 -18 -30 11 -11 58 19 58 37 0 25 -12 23
-40 -7z"/>
<path d="M320 383 c0 -13 29 -38 35 -31 3 3 -4 13 -15 23 -11 10 -20 13 -20 8z"/>
<path d="M363 326 c-13 -6 -23 -18 -23 -27 0 -15 -19 -29 -40 -29 -5 0 -11 10
-13 23 -4 19 -4 18 -6 -5 -1 -23 3 -28 24 -28 13 0 35 5 48 11 18 8 37 7 77
-5 58 -17 100 -21 100 -8 0 4 -12 8 -27 7 -22 0 -29 5 -31 23 -2 12 -9 22 -16
22 -8 0 -19 7 -26 15 -14 17 -35 18 -67 1z"/>
<path d="M340 236 c0 -3 10 -21 22 -41 13 -23 22 -56 23 -89 l2 -51 73 -3 72
-3 -5 28 c-3 15 -15 53 -26 83 l-20 55 -46 -3 c-30 -2 -55 2 -71 13 -13 8 -24
13 -24 11z"/>
</g>
</svg>
